<svg width="28" height="29" viewBox="0 0 28 29" fill="none" xmlns="http://www.w3.org/2000/svg">
<path d="M25.1384 12.3396H24.2158V12.292H13.9074V16.8736H20.3805C19.4361 19.5406 16.8985 21.4551 13.9074 21.4551C10.1122 21.4551 7.03512 18.378 7.03512 14.5828C7.03512 10.7876 10.1122 7.71054 13.9074 7.71054C15.6592 7.71054 17.253 8.37142 18.4666 9.45094L21.7063 6.21124C19.6606 4.30476 16.9243 3.12903 13.9074 3.12903C7.58204 3.12903 2.45361 8.25746 2.45361 14.5828C2.45361 20.9081 7.58204 26.0366 13.9074 26.0366C20.2327 26.0366 25.3612 20.9081 25.3612 14.5828C25.3612 13.8148 25.2821 13.0652 25.1384 12.3396Z" fill="#FFC107"/>
<path d="M3.77417 9.25164L7.53731 12.0114C8.55555 9.49045 11.0215 7.71054 13.9073 7.71054C15.6592 7.71054 17.253 8.37142 18.4665 9.45094L21.7062 6.21124C19.6606 4.30476 16.9242 3.12903 13.9073 3.12903C9.50793 3.12903 5.69268 5.61278 3.77417 9.25164Z" fill="#FF3D00"/>
<path d="M13.9074 26.0365C16.8659 26.0365 19.5541 24.9043 21.5866 23.0631L18.0417 20.0634C16.8533 20.9677 15.4007 21.4566 13.9074 21.455C10.9283 21.455 8.39872 19.5554 7.44577 16.9044L3.71069 19.7822C5.60629 23.4915 9.45591 26.0365 13.9074 26.0365Z" fill="#4CAF50"/>
<path d="M25.1385 12.3395H24.2159V12.292H13.9075V16.8735H20.3806C19.9288 18.1428 19.1151 19.252 18.04 20.064L18.0417 20.0628L21.5867 23.0625C21.3358 23.2905 25.3612 20.3096 25.3612 14.5827C25.3612 13.8148 25.2822 13.0651 25.1385 12.3395Z" fill="#1976D2"/>
</svg>
