<svg width="100" height="100" viewBox="0 0 100 100" fill="none" xmlns="http://www.w3.org/2000/svg">
<circle cx="50" cy="50" r="50" fill="#ADCDFE"/>
<path d="M36.5797 71.805C39.515 70.5188 40.9638 70.2616 43.9555 71.4706C55.832 76.2698 66.2258 82.4948 79.3667 82.4948C85.2749 82.4948 88.0295 75.1086 82.5165 72.29L68.796 65.2823C66.4215 64.0696 63.7384 62.9525 62.5756 60.4464M40.3429 16.3495C40.3429 18.2987 41.1358 20.168 42.5473 21.5463C43.9587 22.9246 45.8731 23.6989 47.8692 23.6989C49.8653 23.6989 51.7796 22.9246 53.1911 21.5463C54.6025 20.168 55.3955 18.2987 55.3955 16.3495C55.3955 14.4003 54.6025 12.5309 53.1911 11.1526C51.7796 9.7743 49.8653 8.99998 47.8692 8.99998C45.8731 8.99998 43.9587 9.7743 42.5473 11.1526C41.1358 12.5309 40.3429 14.4003 40.3429 16.3495ZM47.8692 31.0484C41.8809 31.0484 36.1378 33.3714 31.9035 37.5063C27.6691 41.6412 25.2903 47.2493 25.2903 53.0969C31.2786 53.0969 37.0216 50.7739 41.256 46.639C45.4903 42.5041 47.8692 36.896 47.8692 31.0484ZM47.8692 31.0484C53.8575 31.0484 59.6005 33.3714 63.8349 37.5063C68.0692 41.6412 70.4481 47.2493 70.4481 53.0969C64.4598 53.0969 58.7167 50.7739 54.4824 46.639C50.248 42.5041 47.8692 36.896 47.8692 31.0484Z" fill="#ADCDFE"/>
<path d="M36.5797 71.805C39.515 70.5188 40.9638 70.2616 43.9555 71.4706C55.832 76.2698 66.2258 82.4948 79.3667 82.4948C85.2749 82.4948 88.0295 75.1086 82.5165 72.29L68.796 65.2823C66.4215 64.0696 63.7384 62.9525 62.5755 60.4463M47.8692 31.0484C41.8809 31.0484 36.1378 33.3714 31.9035 37.5063C27.6691 41.6412 25.2903 47.2493 25.2903 53.0969C31.2786 53.0969 37.0216 50.7739 41.256 46.639C45.4903 42.5041 47.8692 36.896 47.8692 31.0484ZM47.8692 31.0484C53.8575 31.0484 59.6005 33.3714 63.8349 37.5063C68.0692 41.6412 70.4481 47.2493 70.4481 53.0969C64.4598 53.0969 58.7167 50.7739 54.4824 46.639C50.248 42.5041 47.8692 36.896 47.8692 31.0484ZM40.3429 16.3495C40.3429 18.2987 41.1358 20.168 42.5473 21.5463C43.9587 22.9246 45.8731 23.6989 47.8692 23.6989C49.8653 23.6989 51.7796 22.9246 53.1911 21.5463C54.6025 20.168 55.3955 18.2987 55.3955 16.3495C55.3955 14.4003 54.6025 12.5309 53.1911 11.1526C51.7796 9.7743 49.8653 8.99998 47.8692 8.99998C45.8731 8.99998 43.9587 9.7743 42.5473 11.1526C41.1358 12.5309 40.3429 14.4003 40.3429 16.3495Z" stroke="black" stroke-width="3" stroke-linecap="round" stroke-linejoin="round"/>
<path d="M36.926 60.9841C35.7594 63.4903 33.08 64.6074 30.7055 65.8201L16.985 72.8278C11.472 75.6463 14.2229 83.0326 20.1348 83.0326C33.2757 83.0326 43.6695 76.8076 55.546 72.0084C58.5377 70.7994 59.9865 71.0566 62.9218 72.3428" fill="#ADCDFE"/>
<path d="M36.926 60.9841C35.7594 63.4903 33.08 64.6074 30.7055 65.8201L16.985 72.8278C11.472 75.6463 14.2229 83.0326 20.1348 83.0326C33.2757 83.0326 43.6695 76.8076 55.546 72.0084C58.5377 70.7994 59.9865 71.0566 62.9218 72.3428" stroke="black" stroke-width="3" stroke-linecap="round" stroke-linejoin="round"/>
</svg>
